<?xml version="1.0" encoding="UTF-8" standalone="no"?>
<!-- Created with Inkscape (http://www.inkscape.org/) -->

<svg
   xmlns:dc="http://purl.org/dc/elements/1.1/"
   xmlns:cc="http://creativecommons.org/ns#"
   xmlns:rdf="http://www.w3.org/1999/02/22-rdf-syntax-ns#"
   xmlns:svg="http://www.w3.org/2000/svg"
   xmlns="http://www.w3.org/2000/svg"
   xmlns:xlink="http://www.w3.org/1999/xlink"
   xmlns:sodipodi="http://sodipodi.sourceforge.net/DTD/sodipodi-0.dtd"
   xmlns:inkscape="http://www.inkscape.org/namespaces/inkscape"
   width="32"
   height="32"
   id="svg6807"
   version="1.1"
   inkscape:version="0.48.3.1 r9886"
   sodipodi:docname="staryu.svg"
   inkscape:export-filename="/home/petr/dev/tcg/editor/tcg_web_editor/assets/img/staryu-57.png"
   inkscape:export-xdpi="160.3125"
   inkscape:export-ydpi="160.3125">
  <defs
     id="defs6809">
    <linearGradient
       id="linearGradient7723">
      <stop
         style="stop-color:#ffffff;stop-opacity:0.76068377;"
         offset="0"
         id="stop7725" />
      <stop
         style="stop-color:#ffffff;stop-opacity:0;"
         offset="1"
         id="stop7727" />
    </linearGradient>
    <linearGradient
       id="linearGradient7712">
      <stop
         style="stop-color:#ffffcc;stop-opacity:1;"
         offset="0"
         id="stop7714" />
      <stop
         style="stop-color:#0000ff;stop-opacity:1;"
         offset="1"
         id="stop7716" />
    </linearGradient>
    <linearGradient
       inkscape:collect="always"
       xlink:href="#linearGradient7723"
       id="linearGradient7729"
       x1="16"
       y1="0"
       x2="16"
       y2="24"
       gradientUnits="userSpaceOnUse" />
    <clipPath
       clipPathUnits="userSpaceOnUse"
       id="clipPath7748">
      <path
         sodipodi:nodetypes="scscssccssccsssssccssccscsccssccss"
         inkscape:connector-curvature="0"
         id="path7750"
         d="m 12.602803,1028.956 c 0.241239,-10e-4 1.90625,1.5625 1.90625,1.5625 0.922153,-0.4762 1.973552,-0.75 3.09375,-0.75 1.0794,0 2.035262,0.2432 2.933036,0.6875 0.498431,-0.4851 0.830643,-1.0659 1.535714,-1.3438 0.30287,-0.1194 1.319386,0.5803 1.34375,1.125 0.01422,0.3179 -0.919643,2.5223 -0.919643,2.5223 0.640956,0.1128 1.253679,1.4446 1.303572,2.8572 0.691964,0.1562 1.780073,0.5186 1.982142,0.7768 0.286197,0.3655 0.174053,1.0642 0.05804,1.4151 -0.116433,0.3522 -2.535714,0.5045 -2.535714,0.5045 0.202381,1.0231 -0.329149,1.7875 -1.053572,2.442 0.424107,0.7142 0.716199,1.9101 0.602679,2.2008 -0.185767,0.4759 -0.700986,1.1246 -1.1875,0.9688 -0.391263,-0.1253 -1.420221,-2.2252 -2.515321,-1.879 -1.802969,0.57 -1.161258,1.7414 -1.515929,1.8477 -0.329881,0.099 -0.771206,0.2883 -1.03125,0.062 -0.561448,-0.4874 0.09821,-0.8392 -0.75,-1.8437 -0.259458,-0.07 -0.535858,-0.1515 -0.78125,-0.25 0,0 -1.840159,1.6597 -2.09375,1.6875 -0.219393,0.024 -1.235122,-0.684 -1.267857,-0.9554 -0.11102,-0.9202 0.870536,-1.8526 0.580357,-2.8571 -0.0483,-0.064 -0.110447,-0.1214 -0.15625,-0.1875 0,0 -1.84208,0.7076 -2.736607,0.3036 -0.388125,-0.1753 -0.617111,-0.8216 -0.589286,-1.2947 0.541218,0.1966 0.638261,0.186 0.980829,0.031 0.578886,-0.262 1.126314,-0.8524 1.126314,-0.8524 l -2.15625,-0.4375 c 0,0 -0.251255,-1.356 0.125,-1.8437 0.09771,-0.1267 0.587663,-0.168 1.164798,-0.3785 0.577136,-0.2105 1.241452,-0.5903 1.241452,-0.5903 0.22605,-0.8334 0.591524,-1.6199 1.125,-2.2812 0,0 -1.184799,-1.9848 -1.053571,-2.509 0.111423,-0.445 0.782268,-0.7393 1.241071,-0.741 z"
         style="fill:#ffffff;fill-opacity:1;stroke:none" />
    </clipPath>
  </defs>
  <sodipodi:namedview
     id="base"
     pagecolor="#ffffff"
     bordercolor="#666666"
     borderopacity="1.0"
     inkscape:pageopacity="0.0"
     inkscape:pageshadow="2"
     inkscape:zoom="15.839192"
     inkscape:cx="23.541212"
     inkscape:cy="16.571057"
     inkscape:document-units="px"
     inkscape:current-layer="layer1"
     showgrid="false"
     inkscape:snap-global="true"
     inkscape:window-width="1342"
     inkscape:window-height="723"
     inkscape:window-x="24"
     inkscape:window-y="0"
     inkscape:window-maximized="1">
    <inkscape:grid
       type="xygrid"
       id="grid6880"
       empspacing="8"
       visible="true"
       enabled="true"
       snapvisiblegridlinesonly="true" />
  </sodipodi:namedview>
  <metadata
     id="metadata6812">
    <rdf:RDF>
      <cc:Work
         rdf:about="">
        <dc:format>image/svg+xml</dc:format>
        <dc:type
           rdf:resource="http://purl.org/dc/dcmitype/StillImage" />
        <dc:title></dc:title>
      </cc:Work>
    </rdf:RDF>
  </metadata>
  <g
     inkscape:label="Layer 1"
     inkscape:groupmode="layer"
     id="layer1"
     transform="translate(0,-1020.3622)">
    <g
       id="g7754">
      <rect
         inkscape:export-ydpi="402.18774"
         inkscape:export-xdpi="402.18774"
         inkscape:export-filename="/home/petr/dev/tcg/editor/tcg_web_editor/assets/img/staryu-144.png"
         y="1020.3622"
         x="-9.5756736e-16"
         height="31.999979"
         width="32"
         id="rect7710"
         style="fill:#0088cc;fill-opacity:1;stroke:none" />
      <path
         sodipodi:nodetypes="ccccc"
         inkscape:connector-curvature="0"
         id="rect7720"
         d="m -1,-1 35,0 0,13 C 24,16 8,16 -1,12 z"
         style="fill:url(#linearGradient7729);fill-opacity:1;stroke:none"
         transform="translate(0,1020.3622)" />
    </g>
    <path
       style="fill:#0c1115;fill-opacity:1;stroke:none"
       d="m 17.040303,1021.2997 c 0.216791,-6e-4 0.422646,0.097 0.5,0.25 1.301722,2.5688 3.46875,8.4375 3.46875,8.4375 l -0.5625,0.5938 c 2.678714,0.6556 8.099256,1.9903 10.0625,2.7187 0.54063,0.2006 0.781484,1.2055 0.21875,1.5625 -2.094913,1.329 -2.371973,1.6416 -6.125,3.7188 -0.431647,0.2389 -0.710296,0.5576 -0.9375,1 -0.0043,0.01 0.0043,0.023 0,0.031 0.369195,2.3699 1.35262,8.5957 1.4375,10.8125 0.02211,0.5762 -0.533386,1.1633 -1,0.6875 -1.622292,-1.6544 -4.480239,-5.0206 -7.09375,-7.9687 -0.751044,0.7971 -6.308944,6.6841 -8.25,8.25 -0.448656,0.362 -1.227652,0.2522 -1.125,-0.4063 0.395417,-2.5363 1.2326,-7.7063 2.03125,-11.8437 -1.609989,-1.1253 -6.240425,-4.3638 -8.0625,-5.6875 -0.466419,-0.3388 0.07987,-1.4981 0.71875,-1.6875 1.950168,-0.5781 5.920023,-1.1742 9.618307,-1.2743 l 0.912943,-1.2257 c 0,0 2.426868,-5.4764 3.65625,-7.7188 0.08227,-0.1501 0.314459,-0.2494 0.53125,-0.25 z"
       id="path6886"
       inkscape:connector-curvature="0"
       sodipodi:nodetypes="sscccscccccccccccccss" />
    <path
       style="fill:#f0f6c2;fill-opacity:1;stroke:none"
       d="m 12.602803,1028.956 c 0.241239,-10e-4 1.90625,1.5625 1.90625,1.5625 0.922153,-0.4762 1.973552,-0.75 3.09375,-0.75 1.0794,0 2.035262,0.2432 2.933036,0.6875 0.498431,-0.4851 0.830643,-1.0659 1.535714,-1.3438 0.30287,-0.1194 1.319386,0.5803 1.34375,1.125 0.01422,0.3179 -0.919643,2.5223 -0.919643,2.5223 0.640956,0.1128 1.253679,1.4446 1.303572,2.8572 0.691964,0.1562 1.780073,0.5186 1.982142,0.7768 0.286197,0.3655 0.174053,1.0642 0.05804,1.4151 -0.116433,0.3522 -2.535714,0.5045 -2.535714,0.5045 0.202381,1.0231 -0.329149,1.7875 -1.053572,2.442 0.424107,0.7142 0.716199,1.9101 0.602679,2.2008 -0.185767,0.4759 -0.700986,1.1246 -1.1875,0.9688 -0.391263,-0.1253 -1.420221,-2.2252 -2.515321,-1.879 -1.802969,0.57 -1.161258,1.7414 -1.515929,1.8477 -0.329881,0.099 -0.771206,0.2883 -1.03125,0.062 -0.561448,-0.4874 0.09821,-0.8392 -0.75,-1.8437 -0.259458,-0.07 -0.535858,-0.1515 -0.78125,-0.25 0,0 -1.840159,1.6597 -2.09375,1.6875 -0.219393,0.024 -1.235122,-0.684 -1.267857,-0.9554 -0.11102,-0.9202 0.870536,-1.8526 0.580357,-2.8571 -0.0483,-0.064 -0.110447,-0.1214 -0.15625,-0.1875 0,0 -1.84208,0.7076 -2.736607,0.3036 -0.388125,-0.1753 -0.617111,-0.8216 -0.589286,-1.2947 0.541218,0.1966 0.638261,0.186 0.980829,0.031 0.578886,-0.262 1.126314,-0.8524 1.126314,-0.8524 l -2.15625,-0.4375 c 0,0 -0.251255,-1.356 0.125,-1.8437 0.09771,-0.1267 0.587663,-0.168 1.164798,-0.3785 0.577136,-0.2105 1.241452,-0.5903 1.241452,-0.5903 0.22605,-0.8334 0.591524,-1.6199 1.125,-2.2812 0,0 -1.184799,-1.9848 -1.053571,-2.509 0.111423,-0.445 0.782268,-0.7393 1.241071,-0.741 z"
       id="path7665"
       inkscape:connector-curvature="0"
       sodipodi:nodetypes="scscssccssccsssssccssccscsccssccss" />
    <path
       sodipodi:type="arc"
       style="fill:#0c1115;fill-opacity:1;stroke:none"
       id="path7670"
       sodipodi:cx="14.6875"
       sodipodi:cy="15.962053"
       sodipodi:rx="2.2991071"
       sodipodi:ry="2.3549106"
       d="m 16.986607,15.962053 a 2.2991071,2.3549106 0 1 1 -4.598214,0 2.2991071,2.3549106 0 1 1 4.598214,0 z"
       transform="matrix(-1.2427184,0,0,1.2037915,36.623088,1016.6294)" />
  </g>
</svg>
